  0
SECTION
  2
HEADER
  9
$ACADVER
  1
AC1006
  9
$EXTMIN
 10
0.000000
 20
0.000000
 30
0.000000
  9
$EXTMAX
 10
500.000000
 20
500.000000
 30
0.000000
  0
ENDSEC
  0
SECTION
  2
ENTITIES
  0
POLYLINE
  8
0
 66
1
 70
1
  0
VERTEX
  8
0
 10
309.942598
 20
394.750000
 42
0.029304
  0
VERTEX
  8
0
 10
309.910232
 20
394.558119
 42
0.000327
  0
VERTEX
  8
0
 10
309.768756
 20
393.251563
 42
0.001015
  0
VERTEX
  8
0
 10
309.609476
 20
391.742761
 42
0.000661
  0
VERTEX
  8
0
 10
309.431402
 20
390.000000
 42
-0.042049
  0
VERTEX
  8
0
 10
308.555017
 20
385.305334
 42
-0.008249
  0
VERTEX
  8
0
 10
306.138113
 20
377.058852
 42
-0.008593
  0
VERTEX
  8
0
 10
303.435163
 20
368.869022
 42
-0.036255
  0
VERTEX
  8
0
 10
301.382136
 20
364.125250
 42
0.011498
  0
VERTEX
  8
0
 10
300.857228
 20
363.060249
 42
0.013663
  0
VERTEX
  8
0
 10
300.412895
 20
362.031209
 42
0.012499
  0
VERTEX
  8
0
 10
300.085656
 20
361.149250
 42
0.080864
  0
VERTEX
  8
0
 10
300.006161
 20
360.683123
 42
-0.102066
  0
VERTEX
  8
0
 10
299.883130
 20
360.108630
 42
-0.002101
  0
VERTEX
  8
0
 10
298.681933
 20
357.408661
 42
-0.004836
  0
VERTEX
  8
0
 10
297.229103
 20
354.261398
 42
-0.003224
  0
VERTEX
  8
0
 10
295.506803
 20
350.683123
 42
-0.023391
  0
VERTEX
  8
0
 10
289.454789
 20
339.652644
 42
-0.068664
  0
VERTEX
  8
0
 10
283.980739
 20
332.961784
 42
-0.074358
  0
VERTEX
  8
0
 10
277.156610
 20
328.297791
 42
-0.030894
  0
VERTEX
  8
0
 10
266.801391
 20
324.049392
 42
-0.028059
  0
VERTEX
  8
0
 10
252.987247
 20
320.204578
 42
-0.034078
  0
VERTEX
  8
0
 10
239.696804
 20
318.233676
 42
-0.035869
  0
VERTEX
  8
0
 10
228.668167
 20
318.152216
 42
-0.167540
  0
VERTEX
  8
0
 10
222.892147
 20
320.569240
 42
-0.090797
  0
VERTEX
  8
0
 10
220.471571
 20
323.679213
 42
-0.008226
  0
VERTEX
  8
0
 10
216.049842
 20
332.518517
 42
-0.011583
  0
VERTEX
  8
0
 10
211.672616
 20
342.210341
 42
-0.017764
  0
VERTEX
  8
0
 10
208.379849
 20
350.813777
 42
0.004579
  0
VERTEX
  8
0
 10
207.277024
 20
353.939765
 42
0.004892
  0
VERTEX
  8
0
 10
206.140549
 20
356.976547
 42
0.004655
  0
VERTEX
  8
0
 10
205.113959
 20
359.567880
 42
0.022733
  0
VERTEX
  8
0
 10
204.453755
 20
361.000000
 42
0.085917
  0
VERTEX
  8
0
 10
200.849202
 20
365.753047
 42
0.021260
  0
VERTEX
  8
0
 10
193.391823
 20
372.137457
 42
0.022333
  0
VERTEX
  8
0
 10
184.658492
 20
378.383668
 42
0.031352
  0
VERTEX
  8
0
 10
176.312294
 20
383.090867
 42
0.031127
  0
VERTEX
  8
0
 10
174.071546
 20
384.008288
 42
0.017803
  0
VERTEX
  8
0
 10
171.270161
 20
384.846605
 42
0.017733
  0
VERTEX
  8
0
 10
168.381512
 20
385.491667
 42
0.028016
  0
VERTEX
  8
0
 10
165.864651
 20
385.816171
 42
0.017565
  0
VERTEX
  8
0
 10
162.320237
 20
385.947666
 42
0.087968
  0
VERTEX
  8
0
 10
160.370772
 20
385.605943
 42
0.083924
  0
VERTEX
  8
0
 10
158.614714
 20
384.608713
 42
0.015199
  0
VERTEX
  8
0
 10
155.770939
 20
382.142978
 42
0.056518
  0
VERTEX
  8
0
 10
148.327248
 20
373.538070
 42
0.023680
  0
VERTEX
  8
0
 10
140.269219
 20
360.480225
 42
0.022206
  0
VERTEX
  8
0
 10
132.559640
 20
344.964035
 42
0.020969
  0
VERTEX
  8
0
 10
126.094176
 20
328.529253
 42
0.007093
  0
VERTEX
  8
0
 10
123.663453
 20
321.161930
 42
0.037849
  0
VERTEX
  8
0
 10
122.703190
 20
317.039211
 42
0.098737
  0
VERTEX
  8
0
 10
122.799941
 20
314.824477
 42
0.345406
  0
VERTEX
  8
0
 10
123.851042
 20
314.000000
 42
0.300374
  0
VERTEX
  8
0
 10
124.322037
 20
314.311011
 42
0.004236
  0
VERTEX
  8
0
 10
125.693080
 20
317.598437
 42
0.010113
  0
VERTEX
  8
0
 10
127.211017
 20
321.553892
 42
0.006289
  0
VERTEX
  8
0
 10
128.838586
 20
326.250000
 42
-0.026165
  0
VERTEX
  8
0
 10
135.344952
 20
342.858969
 42
-0.021922
  0
VERTEX
  8
0
 10
143.907731
 20
359.736010
 42
-0.020838
  0
VERTEX
  8
0
 10
152.782877
 20
374.049758
 42
-0.093614
  0
VERTEX
  8
0
 10
159.705519
 20
381.000390
 42
-0.130949
  0
VERTEX
  8
0
 10
164.424602
 20
382.671377
 42
-0.089847
  0
VERTEX
  8
0
 10
170.105755
 20
382.105302
 42
-0.058201
  0
VERTEX
  8
0
 10
177.294655
 20
379.109888
 42
-0.020627
  0
VERTEX
  8
0
 10
186.797830
 20
373.253126
 42
-0.015942
  0
VERTEX
  8
0
 10
194.760197
 20
367.503001
 42
-0.060863
  0
VERTEX
  8
0
 10
199.110554
 20
363.208787
 42
-0.065147
  0
VERTEX
  8
0
 10
202.149136
 20
358.142047
 42
-0.020026
  0
VERTEX
  8
0
 10
205.379849
 20
349.813777
 42
0.018189
  0
VERTEX
  8
0
 10
208.912022
 20
340.608268
 42
0.014385
  0
VERTEX
  8
0
 10
213.372467
 20
330.921402
 42
0.012503
  0
VERTEX
  8
0
 10
217.837999
 20
322.453666
 42
0.076523
  0
VERTEX
  8
0
 10
220.870210
 20
318.571188
 42
0.041333
  0
VERTEX
  8
0
 10
222.932734
 20
316.929133
 42
0.077628
  0
VERTEX
  8
0
 10
224.860269
 20
316.033862
 42
0.048562
  0
VERTEX
  8
0
 10
227.517503
 20
315.542574
 42
0.008334
  0
VERTEX
  8
0
 10
232.641669
 20
315.187897
 42
0.024683
  0
VERTEX
  8
0
 10
239.936336
 20
315.165415
 42
0.024112
  0
VERTEX
  8
0
 10
247.255473
 20
315.859065
 42
0.021852
  0
VERTEX
  8
0
 10
255.100264
 20
317.338523
 42
0.014295
  0
VERTEX
  8
0
 10
264.000000
 20
319.693528
 42
0.018106
  0
VERTEX
  8
0
 10
270.585770
 20
321.901458
 42
0.016265
  0
VERTEX
  8
0
 10
277.238191
 20
324.653218
 42
0.015994
  0
VERTEX
  8
0
 10
282.975195
 20
327.472269
 42
0.059903
  0
VERTEX
  8
0
 10
286.264118
 20
329.763013
 42
0.065537
  0
VERTEX
  8
0
 10
289.929130
 20
334.010876
 42
0.017442
  0
VERTEX
  8
0
 10
294.583580
 20
341.669274
 42
0.017042
  0
VERTEX
  8
0
 10
299.403612
 20
350.992626
 42
0.015112
  0
VERTEX
  8
0
 10
303.786987
 20
361.000000
 42
0.011108
  0
VERTEX
  8
0
 10
307.938618
 20
372.016174
 42
0.013565
  0
VERTEX
  8
0
 10
311.309219
 20
382.500147
 42
0.007832
  0
VERTEX
  8
0
 10
313.817607
 20
391.624911
 42
0.204320
  0
VERTEX
  8
0
 10
313.443650
 20
394.091177
 42
0.163277
  0
VERTEX
  8
0
 10
312.813283
 20
394.615187
 42
0.045988
  0
VERTEX
  8
0
 10
311.566972
 20
394.970757
 42
0.046515
  0
VERTEX
  8
0
 10
310.361103
 20
395.083276
 42
0.349573
  0
SEQEND
  0
ENDSEC
  0
EOF
