999
dxfrw 0.6.3
  0
SECTION
  2
HEADER
  9
$ACADVER
  1
AC1021
  9
$DWGCODEPAGE
  3
ANSI_1252
  9
$INSBASE
 10
0
 20
0
 30
0
  9
$EXTMIN
 10
-0.4565805061454988
 20
-0.2909585569673944
 30
0
  9
$EXTMAX
 10
500.0000000000001
 20
499.75
 30
0
  9
$LIMMIN
 10
0
 20
0
  9
$LIMMAX
 10
420
 20
297
  9
$ORTHOMODE
 70
    0
  9
$REGENMODE
 70
    1
  9
$FILLMODE
 70
    1
  9
$QTEXTMODE
 70
    0
  9
$MIRRTEXT
 70
    0
  9
$LTSCALE
 40
1
  9
$ATTMODE
 70
    0
  9
$TEXTSIZE
 40
2.5
  9
$TRACEWID
 40
15.68
  9
$TEXTSTYLE
  7
STANDARD
  9
$CLAYER
  8
noname
  9
$CELTYPE
  6
BYLAYER
  9
$CECOLOR
 62
  256
  9
$CELTSCALE
 40
1
  9
$DISPSILH
 70
    0
  9
$DIMSCALE
 40
2.5
  9
$DIMASZ
 40
2.5
  9
$DIMEXO
 40
0.625
  9
$DIMDLI
 40
3.75
  9
$DIMRND
 40
0
  9
$DIMDLE
 40
0
  9
$DIMEXE
 40
1.25
  9
$DIMTP
 40
0
  9
$DIMTM
 40
0
  9
$DIMTXT
 40
2.5
  9
$DIMCEN
 40
2.5
  9
$DIMTSZ
 40
0
  9
$DIMTOL
 70
    0
  9
$DIMLIM
 70
    0
  9
$DIMTIH
 70
    0
  9
$DIMTOH
 70
    0
  9
$DIMSE1
 70
    0
  9
$DIMSE2
 70
    0
  9
$DIMTAD
 70
    1
  9
$DIMZIN
 70
    8
  9
$DIMBLK
  1

  9
$DIMASO
 70
    1
  9
$DIMSHO
 70
    1
  9
$DIMPOST
  1

  9
$DIMAPOST
  1

  9
$DIMALT
 70
    0
  9
$DIMALTD
 70
    3
  9
$DIMALTF
 40
0.03937
  9
$DIMLFAC
 40
1
  9
$DIMTOFL
 70
    1
  9
$DIMTVP
 40
0
  9
$DIMTIX
 70
    0
  9
$DIMSOXD
 70
    0
  9
$DIMSAH
 70
    0
  9
$DIMBLK1
  1

  9
$DIMBLK2
  1

  9
$DIMSTYLE
  2
STANDARD
  9
$DIMCLRD
 70
    0
  9
$DIMCLRE
 70
    0
  9
$DIMCLRT
 70
    0
  9
$DIMTFAC
 40
1
  9
$DIMGAP
 40
0.625
  9
$DIMJUST
 70
    0
  9
$DIMSD1
 70
    0
  9
$DIMSD2
 70
    0
  9
$DIMTOLJ
 70
    0
  9
$DIMTZIN
 70
    8
  9
$DIMALTZ
 70
    0
  9
$DIMALTTZ
 70
    0
  9
$DIMUPT
 70
    0
  9
$DIMDEC
 70
    2
  9
$DIMTDEC
 70
    2
  9
$DIMALTU
 70
    2
  9
$DIMALTTD
 70
    3
  9
$DIMTXSTY
  7
STANDARD
  9
$DIMAUNIT
 70
    0
  9
$DIMADEC
 70
    0
  9
$DIMALTRND
 40
0
  9
$DIMAZIN
 70
    0
  9
$DIMDSEP
 70
   44
  9
$DIMATFIT
 70
    3
  9
$DIMFRAC
 70
    0
  9
$DIMLDRBLK
  1
STANDARD
  9
$DIMLUNIT
 70
    2
  9
$DIMLWD
 70
   -2
  9
$DIMLWE
 70
   -2
  9
$DIMTMOVE
 70
    0
  9
$DIMFXL
 40
1
  9
$DIMFXLON
 70
    0
  9
$DIMJOGANG
 40
0.7854
  9
$DIMTFILL
 70
    0
  9
$DIMTFILLCLR
 70
    0
  9
$DIMARCSYM
 70
    0
  9
$DIMLTYPE
  6

  9
$DIMLTEX1
  6

  9
$DIMLTEX2
  6

  9
$LUNITS
 70
    2
  9
$LUPREC
 70
    4
  9
$SKETCHINC
 40
1
  9
$FILLETRAD
 40
0
  9
$AUNITS
 70
    0
  9
$AUPREC
 70
    2
  9
$MENU
  1
.
  9
$ELEVATION
 40
0
  9
$PELEVATION
 40
0
  9
$THICKNESS
 40
0
  9
$LIMCHECK
 70
    0
  9
$CHAMFERA
 40
0
  9
$CHAMFERB
 40
0
  9
$CHAMFERC
 40
0
  9
$CHAMFERD
 40
0
  9
$SKPOLY
 70
    0
  9
$USRTIMER
 70
    1
  9
$ANGBASE
 50
0
  9
$ANGDIR
 70
    0
  9
$PDMODE
 70
   34
  9
$PDSIZE
 40
0
  9
$PLINEWID
 40
0
  9
$SPLFRAME
 70
    0
  9
$SPLINETYPE
 70
    2
  9
$SPLINESEGS
 70
    8
  9
$HANDSEED
  5
20000
  9
$SURFTAB1
 70
    6
  9
$SURFTAB2
 70
    6
  9
$SURFTYPE
 70
    6
  9
$SURFU
 70
    6
  9
$SURFV
 70
    6
  9
$UCSBASE
  2

  9
$UCSNAME
  2

  9
$UCSORG
 10
0
 20
0
 30
0
  9
$UCSXDIR
 10
1
 20
0
 30
0
  9
$UCSYDIR
 10
0
 20
1
 30
0
  9
$UCSORTHOREF
  2

  9
$UCSORTHOVIEW
 70
    0
  9
$UCSORGTOP
 10
0
 20
0
 30
0
  9
$UCSORGBOTTOM
 10
0
 20
0
 30
0
  9
$UCSORGLEFT
 10
0
 20
0
 30
0
  9
$UCSORGRIGHT
 10
0
 20
0
 30
0
  9
$UCSORGFRONT
 10
0
 20
0
 30
0
  9
$UCSORGBACK
 10
0
 20
0
 30
0
  9
$PUCSBASE
  2

  9
$PUCSNAME
  2

  9
$PUCSORG
 10
0
 20
0
 30
0
  9
$PUCSXDIR
 10
1
 20
0
 30
0
  9
$PUCSYDIR
 10
0
 20
1
 30
0
  9
$PUCSORTHOREF
  2

  9
$PUCSORTHOVIEW
 70
    0
  9
$PUCSORGTOP
 10
0
 20
0
 30
0
  9
$PUCSORGBOTTOM
 10
0
 20
0
 30
0
  9
$PUCSORGLEFT
 10
0
 20
0
 30
0
  9
$PUCSORGRIGHT
 10
0
 20
0
 30
0
  9
$PUCSORGFRONT
 10
0
 20
0
 30
0
  9
$PUCSORGBACK
 10
0
 20
0
 30
0
  9
$USERI1
 70
    0
  9
$USERI2
 70
    0
  9
$USERI3
 70
    0
  9
$USERI4
 70
    0
  9
$USERI5
 70
    0
  9
$USERR1
 40
0
  9
$USERR2
 40
0
  9
$USERR3
 40
0
  9
$USERR4
 40
0
  9
$USERR5
 40
0
  9
$WORLDVIEW
 70
    1
  9
$SHADEDGE
 70
    3
  9
$SHADEDIF
 70
   70
  9
$TILEMODE
 70
    1
  9
$MAXACTVP
 70
   64
  9
$PINSBASE
 10
0
 20
0
 30
0
  9
$PLIMCHECK
 70
    0
  9
$PEXTMIN
 10
0
 20
0
 30
0
  9
$PEXTMAX
 10
0
 20
0
 30
0
  9
$SNAPSTYLE
 70
    0
  9
$PLIMMIN
 10
0
 20
0
  9
$PLIMMAX
 10
210
 20
297
  9
$UNITMODE
 70
    0
  9
$VISRETAIN
 70
    1
  9
$PLINEGEN
 70
    0
  9
$PSLTSCALE
 70
    1
  9
$TREEDEPTH
 70
 3020
  9
$CMLSTYLE
  2
Standard
  9
$CMLJUST
 70
    0
  9
$CMLSCALE
 40
20
  9
$PROXYGRAPHICS
 70
    1
  9
$MEASUREMENT
 70
    1
  9
$CELWEIGHT
370
   -1
  9
$ENDCAPS
280
    0
  9
$JOINSTYLE
280
    0
  9
$LWDISPLAY
290
    0
  9
$INSUNITS
 70
    4
  9
$HYPERLINKBASE
  1

  9
$STYLESHEET
  1

  9
$XEDIT
290
    1
  9
$CEPSNTYPE
380
    0
  9
$PSTYLEMODE
290
    1
  9
$EXTNAMES
290
    1
  9
$PSVPSCALE
 40
1
  9
$OLESTARTUP
290
    0
  9
$SORTENTS
280
  127
  9
$INDEXCTL
280
    0
  9
$HIDETEXT
280
    1
  9
$XCLIPFRAME
290
    0
  9
$HALOGAP
280
    0
  9
$OBSCOLOR
 70
  257
  9
$OBSLTYPE
280
    0
  9
$INTERSECTIONDISPLAY
280
    0
  9
$INTERSECTIONCOLOR
 70
  257
  9
$DIMASSOC
280
    1
  9
$PROJECTNAME
  1

  9
$CAMERADISPLAY
290
    0
  9
$LENSLENGTH
 40
50
  9
$CAMERAHEIGHT
 40
0
  9
$STEPSPERSEC
 40
2
  9
$STEPSIZE
 40
50
  9
$3DDWFPREC
 40
2
  9
$PSOLWIDTH
 40
5
  9
$PSOLHEIGHT
 40
80
  9
$LOFTANG1
 40
1.570796326794897
  9
$LOFTANG2
 40
1.570796326794897
  9
$LOFTMAG1
 40
0
  9
$LOFTMAG2
 40
0
  9
$LOFTPARAM
 70
    7
  9
$LOFTNORMALS
280
    1
  9
$LATITUDE
 40
1
  9
$LONGITUDE
 40
1
  9
$NORTHDIRECTION
 40
0
  9
$TIMEZONE
 70
-8000
  9
$LIGHTGLYPHDISPLAY
280
    1
  9
$TILEMODELIGHTSYNCH
280
    1
  9
$SOLIDHIST
280
    1
  9
$SHOWHIST
280
    1
  9
$DWFFRAME
280
    2
  9
$DGNFRAME
280
    0
  9
$REALWORLDSCALE
290
    1
  9
$INTERFERECOLOR
 62
    1
  9
$CSHADOW
280
    0
  9
$SHADOWPLANELOCATION
 40
0
  0
ENDSEC
  0
SECTION
  2
CLASSES
  0
ENDSEC
  0
SECTION
  2
TABLES
  0
TABLE
  2
VPORT
  5
8
330
0
100
AcDbSymbolTable
 70
    1
  0
VPORT
  5
31
330
2
100
AcDbSymbolTableRecord
100
AcDbViewportTableRecord
  2
*ACTIVE
 70
    0
 10
0
 20
0
 11
1
 21
1
 12
1.356970511373796
 22
0.311024664344456
 13
0
 23
0
 14
10
 24
10
 15
10
 25
10
 16
0
 26
0
 36
1
 17
0
 27
0
 37
0
 40
1.362823126025439
 41
1.815950920245399
 42
50
 43
0
 44
0
 50
0
 51
0
 71
    0
 72
  100
 73
    1
 74
    3
 75
    0
 76
    1
 77
    0
 78
    0
281
    0
 65
    1
110
0
120
0
130
0
111
1
121
0
131
0
112
0
122
1
132
0
 79
    0
146
0
348
10020
 60
    7
 61
    5
292
1
282
    1
141
0
142
0
 63
  250
421
3358443
  0
ENDTAB
  0
TABLE
  2
LTYPE
  5
5
330
0
100
AcDbSymbolTable
 70
    4
  0
LTYPE
  5
14
330
5
100
AcDbSymbolTableRecord
100
AcDbLinetypeTableRecord
  2
ByBlock
 70
    0
  3

 72
   65
 73
    0
 40
0
  0
LTYPE
  5
15
330
5
100
AcDbSymbolTableRecord
100
AcDbLinetypeTableRecord
  2
ByLayer
 70
    0
  3

 72
   65
 73
    0
 40
0
  0
LTYPE
  5
16
330
5
100
AcDbSymbolTableRecord
100
AcDbLinetypeTableRecord
  2
Continuous
 70
    0
  3
Solid line
 72
   65
 73
    0
 40
0
  0
LTYPE
  5
32
330
5
100
AcDbSymbolTableRecord
100
AcDbLinetypeTableRecord
  2
DOT
 70
    0
  3
Dot . . . . . . . . . . . . . . . . . . . . . .
 72
   65
 73
    2
 40
6.35
 49
0
 74
    0
 49
-6.35
 74
    0
  0
LTYPE
  5
33
330
5
100
AcDbSymbolTableRecord
100
AcDbLinetypeTableRecord
  2
DOTTINY
 70
    0
  3
Dot (.15x) .....................................
 72
   65
 73
    2
 40
0.9525
 49
0
 74
    0
 49
-0.9525
 74
    0
  0
LTYPE
  5
34
330
5
100
AcDbSymbolTableRecord
100
AcDbLinetypeTableRecord
  2
DOT2
 70
    0
  3
Dot (.5x) .....................................
 72
   65
 73
    2
 40
3.175
 49
0
 74
    0
 49
-3.175
 74
    0
  0
LTYPE
  5
35
330
5
100
AcDbSymbolTableRecord
100
AcDbLinetypeTableRecord
  2
DOTX2
 70
    0
  3
Dot (2x) .  .  .  .  .  .  .  .  .  .  .  .  .
 72
   65
 73
    2
 40
12.7
 49
0
 74
    0
 49
-12.7
 74
    0
  0
LTYPE
  5
36
330
5
100
AcDbSymbolTableRecord
100
AcDbLinetypeTableRecord
  2
DASHED
 70
    0
  3
Dashed _ _ _ _ _ _ _ _ _ _ _ _ _ _ _ _ _
 72
   65
 73
    2
 40
19.05
 49
12.7
 74
    0
 49
-6.35
 74
    0
  0
LTYPE
  5
37
330
5
100
AcDbSymbolTableRecord
100
AcDbLinetypeTableRecord
  2
DASHEDTINY
 70
    0
  3
Dashed (.15x) _ _ _ _ _ _ _ _ _ _ _ _ _ _ _ _ _
 72
   65
 73
    2
 40
2.8575
 49
1.905
 74
    0
 49
-0.9525
 74
    0
  0
LTYPE
  5
38
330
5
100
AcDbSymbolTableRecord
100
AcDbLinetypeTableRecord
  2
DASHED2
 70
    0
  3
Dashed (.5x) _ _ _ _ _ _ _ _ _ _ _ _ _ _ _ _ _
 72
   65
 73
    2
 40
9.524999999999999
 49
6.35
 74
    0
 49
-3.175
 74
    0
  0
LTYPE
  5
39
330
5
100
AcDbSymbolTableRecord
100
AcDbLinetypeTableRecord
  2
DASHEDX2
 70
    0
  3
Dashed (2x) ____  ____  ____  ____  ____  ___
 72
   65
 73
    2
 40
38.09999999999999
 49
25.4
 74
    0
 49
-12.7
 74
    0
  0
LTYPE
  5
3A
330
5
100
AcDbSymbolTableRecord
100
AcDbLinetypeTableRecord
  2
DASHDOT
 70
    0
  3
Dash dot __ . __ . __ . __ . __ . __ . __ . __
 72
   65
 73
    4
 40
25.4
 49
12.7
 74
    0
 49
-6.35
 74
    0
 49
0
 74
    0
 49
-6.35
 74
    0
  0
LTYPE
  5
3B
330
5
100
AcDbSymbolTableRecord
100
AcDbLinetypeTableRecord
  2
DASHDOTTINY
 70
    0
  3
Dash dot (.15x) _._._._._._._._._._._._._._._.
 72
   65
 73
    4
 40
3.81
 49
1.905
 74
    0
 49
-0.9525
 74
    0
 49
0
 74
    0
 49
-0.9525
 74
    0
  0
LTYPE
  5
3C
330
5
100
AcDbSymbolTableRecord
100
AcDbLinetypeTableRecord
  2
DASHDOT2
 70
    0
  3
Dash dot (.5x) _._._._._._._._._._._._._._._.
 72
   65
 73
    4
 40
12.7
 49
6.35
 74
    0
 49
-3.175
 74
    0
 49
0
 74
    0
 49
-3.175
 74
    0
  0
LTYPE
  5
3D
330
5
100
AcDbSymbolTableRecord
100
AcDbLinetypeTableRecord
  2
DASHDOTX2
 70
    0
  3
Dash dot (2x) ____  .  ____  .  ____  .  ___
 72
   65
 73
    4
 40
50.8
 49
25.4
 74
    0
 49
-12.7
 74
    0
 49
0
 74
    0
 49
-12.7
 74
    0
  0
LTYPE
  5
3E
330
5
100
AcDbSymbolTableRecord
100
AcDbLinetypeTableRecord
  2
DIVIDE
 70
    0
  3
Divide ____ . . ____ . . ____ . . ____ . . ____
 72
   65
 73
    6
 40
31.75
 49
12.7
 74
    0
 49
-6.35
 74
    0
 49
0
 74
    0
 49
-6.35
 74
    0
 49
0
 74
    0
 49
-6.35
 74
    0
  0
LTYPE
  5
3F
330
5
100
AcDbSymbolTableRecord
100
AcDbLinetypeTableRecord
  2
DIVIDETINY
 70
    0
  3
Divide (.15x) __..__..__..__..__..__..__..__.._
 72
   65
 73
    6
 40
4.7625
 49
1.905
 74
    0
 49
-0.9525
 74
    0
 49
0
 74
    0
 49
-0.9525
 74
    0
 49
0
 74
    0
 49
-0.9525
 74
    0
  0
LTYPE
  5
40
330
5
100
AcDbSymbolTableRecord
100
AcDbLinetypeTableRecord
  2
DIVIDE2
 70
    0
  3
Divide (.5x) __..__..__..__..__..__..__..__.._
 72
   65
 73
    6
 40
15.875
 49
6.35
 74
    0
 49
-3.175
 74
    0
 49
0
 74
    0
 49
-3.175
 74
    0
 49
0
 74
    0
 49
-3.175
 74
    0
  0
LTYPE
  5
41
330
5
100
AcDbSymbolTableRecord
100
AcDbLinetypeTableRecord
  2
DIVIDEX2
 70
    0
  3
Divide (2x) ________  .  .  ________  .  .  _
 72
   65
 73
    6
 40
63.5
 49
25.4
 74
    0
 49
-12.7
 74
    0
 49
0
 74
    0
 49
-12.7
 74
    0
 49
0
 74
    0
 49
-12.7
 74
    0
  0
LTYPE
  5
42
330
5
100
AcDbSymbolTableRecord
100
AcDbLinetypeTableRecord
  2
BORDER
 70
    0
  3
Border __ __ . __ __ . __ __ . __ __ . __ __ .
 72
   65
 73
    6
 40
44.45
 49
12.7
 74
    0
 49
-6.35
 74
    0
 49
12.7
 74
    0
 49
-6.35
 74
    0
 49
0
 74
    0
 49
-6.35
 74
    0
  0
LTYPE
  5
43
330
5
100
AcDbSymbolTableRecord
100
AcDbLinetypeTableRecord
  2
BORDERTINY
 70
    0
  3
Border (.15x) __.__.__.__.__.__.__.__.__.__.__.
 72
   65
 73
    6
 40
6.6675
 49
1.905
 74
    0
 49
-0.9525
 74
    0
 49
1.905
 74
    0
 49
-0.9525
 74
    0
 49
0
 74
    0
 49
-0.9525
 74
    0
  0
LTYPE
  5
44
330
5
100
AcDbSymbolTableRecord
100
AcDbLinetypeTableRecord
  2
BORDER2
 70
    0
  3
Border (.5x) __.__.__.__.__.__.__.__.__.__.__.
 72
   65
 73
    6
 40
22.225
 49
6.35
 74
    0
 49
-3.175
 74
    0
 49
6.35
 74
    0
 49
-3.175
 74
    0
 49
0
 74
    0
 49
-3.175
 74
    0
  0
LTYPE
  5
45
330
5
100
AcDbSymbolTableRecord
100
AcDbLinetypeTableRecord
  2
BORDERX2
 70
    0
  3
Border (2x) ____  ____  .  ____  ____  .  ___
 72
   65
 73
    6
 40
88.89999999999999
 49
25.4
 74
    0
 49
-12.7
 74
    0
 49
25.4
 74
    0
 49
-12.7
 74
    0
 49
0
 74
    0
 49
-12.7
 74
    0
  0
LTYPE
  5
46
330
5
100
AcDbSymbolTableRecord
100
AcDbLinetypeTableRecord
  2
CENTER
 70
    0
  3
Center ____ _ ____ _ ____ _ ____ _ ____ _ ____
 72
   65
 73
    4
 40
50.8
 49
31.75
 74
    0
 49
-6.35
 74
    0
 49
6.35
 74
    0
 49
-6.35
 74
    0
  0
LTYPE
  5
47
330
5
100
AcDbSymbolTableRecord
100
AcDbLinetypeTableRecord
  2
CENTERTINY
 70
    0
  3
Center (.15x) ___ _ ___ _ ___ _ ___ _ ___ _ ___
 72
   65
 73
    4
 40
7.619999999999999
 49
4.7625
 74
    0
 49
-0.9525
 74
    0
 49
0.9525
 74
    0
 49
-0.9525
 74
    0
  0
LTYPE
  5
48
330
5
100
AcDbSymbolTableRecord
100
AcDbLinetypeTableRecord
  2
CENTER2
 70
    0
  3
Center (.5x) ___ _ ___ _ ___ _ ___ _ ___ _ ___
 72
   65
 73
    4
 40
28.575
 49
19.05
 74
    0
 49
-3.175
 74
    0
 49
3.175
 74
    0
 49
-3.175
 74
    0
  0
LTYPE
  5
49
330
5
100
AcDbSymbolTableRecord
100
AcDbLinetypeTableRecord
  2
CENTERX2
 70
    0
  3
Center (2x) ________  __  ________  __  _____
 72
   65
 73
    4
 40
101.6
 49
63.5
 74
    0
 49
-12.7
 74
    0
 49
12.7
 74
    0
 49
-12.7
 74
    0
  0
ENDTAB
  0
TABLE
  2
LAYER
  5
2
330
0
100
AcDbSymbolTable
 70
    1
  0
LAYER
  5
10
330
2
100
AcDbSymbolTableRecord
100
AcDbLayerTableRecord
  2
0
 70
    0
 62
    7
  6
CONTINUOUS
370
    0
390
F
  0
LAYER
  5
4A
330
2
100
AcDbSymbolTableRecord
100
AcDbLayerTableRecord
  2
noname
 70
    0
 62
  216
420
8388736
  6
CONTINUOUS
370
    0
390
F
  0
ENDTAB
  0
TABLE
  2
STYLE
  5
3
330
0
100
AcDbSymbolTable
 70
    3
  0
STYLE
  5
4B
330
2
100
AcDbSymbolTableRecord
100
AcDbTextStyleTableRecord
  2
Standard
 70
    0
 40
0
 41
1
 50
0
 71
    0
 42
1
  3
txt
  4

  0
ENDTAB
  0
TABLE
  2
VIEW
  5
6
330
0
100
AcDbSymbolTable
 70
    0
  0
ENDTAB
  0
TABLE
  2
UCS
  5
7
330
0
100
AcDbSymbolTable
 70
    0
  0
ENDTAB
  0
TABLE
  2
APPID
  5
9
330
0
100
AcDbSymbolTable
 70
    1
  0
APPID
  5
12
330
9
100
AcDbSymbolTableRecord
100
AcDbRegAppTableRecord
  2
ACAD
 70
    0
  0
APPID
  5
4C
330
9
100
AcDbSymbolTableRecord
100
AcDbRegAppTableRecord
  2
LibreCad
 70
    0
  0
ENDTAB
  0
TABLE
  2
DIMSTYLE
  5
A
330
0
100
AcDbSymbolTable
 70
    1
100
AcDbDimStyleTable
 71
    1
  0
DIMSTYLE
105
4D
330
A
100
AcDbSymbolTableRecord
100
AcDbDimStyleTableRecord
  2
Standard
 70
    0
 40
1
 41
2.5
 42
0.625
 43
0.38
 44
1.25
 45
0
 46
0
 47
0
 48
0
 49
1
140
2.5
141
0.09
142
2.5
143
25.4
144
1
145
0
146
1
147
0.625
148
0
 71
    0
 72
    0
 73
    0
 74
    1
 75
    0
 76
    0
 77
    0
 78
    1
 79
    0
170
    0
171
    2
172
    0
173
    0
174
    0
175
    0
176
    0
177
    0
178
    0
179
    0
271
    2
272
    4
273
    2
274
    2
275
    0
276
    0
277
    2
278
    0
279
    0
280
    0
281
    0
282
    0
283
    1
284
    0
285
    0
286
    0
288
    0
289
    3
340
standard
341

371
   -2
372
   -2
  0
ENDTAB
  0
TABLE
  2
BLOCK_RECORD
  5
1
330
0
100
AcDbSymbolTable
 70
    2
  0
BLOCK_RECORD
  5
1F
330
1
100
AcDbSymbolTableRecord
100
AcDbBlockTableRecord
  2
*Model_Space
 70
    0
280
    1
281
    0
  0
BLOCK_RECORD
  5
1E
330
1
100
AcDbSymbolTableRecord
100
AcDbBlockTableRecord
  2
*Paper_Space
 70
    0
280
    1
281
    0
  0
ENDTAB
  0
ENDSEC
  0
SECTION
  2
BLOCKS
  0
BLOCK
  5
20
330
1F
100
AcDbEntity
  8
0
100
AcDbBlockBegin
  2
*Model_Space
 70
    0
 10
0
 20
0
 30
0
  3
*Model_Space
  1

  0
ENDBLK
  5
21
330
1F
100
AcDbEntity
  8
0
100
AcDbBlockEnd
  0
BLOCK
  5
1C
330
1B
100
AcDbEntity
  8
0
100
AcDbBlockBegin
  2
*Paper_Space
 70
    0
 10
0
 20
0
 30
0
  3
*Paper_Space
  1

  0
ENDBLK
  5
1D
330
1F
100
AcDbEntity
  8
0
100
AcDbBlockEnd
  0
ENDSEC
  0
SECTION
  2
ENTITIES
  0
IMAGE
  5
50
100
AcDbEntity
  8
0
  6
ByLayer
 62
  256
370
   -1
100
AcDbRasterImage
 10
0
 20
-0.25
 30
0
 11
1
 21
0
 31
0
 12
6.123233995736766e-17
 22
1
 32
0
 13
500
 23
500
340
4E
 70
    1
280
    0
281
   50
282
   50
283
    0
360
4F
  0
LINE
  5
51
100
AcDbEntity
  8
noname
  6
ByLayer
 62
  256
370
   -1
100
AcDbLine
 10
1.259551151089109
 20
0.551053628601485
 11
0.8659414163737622
 21
4.487150975754949
  0
LINE
  5
52
100
AcDbEntity
  8
noname
  6
ByLayer
 62
  256
370
   -1
100
AcDbLine
 10
0.8659414163737622
 20
4.487150975754949
 11
1.968048673576732
 21
4.487150975754949
  0
LINE
  5
53
100
AcDbEntity
  8
noname
  6
ByLayer
 62
  256
370
   -1
100
AcDbLine
 10
1.968048673576732
 20
4.487150975754949
 11
2.519102302178217
 21
0.9446633633168314
  0
LINE
  5
54
100
AcDbEntity
  8
noname
  6
ByLayer
 62
  256
370
   -1
100
AcDbLine
 10
2.519102302178217
 20
0.9446633633168314
 11
4.802038763527227
 21
1.180829204146039
  0
LINE
  5
55
100
AcDbEntity
  8
noname
  6
ByLayer
 62
  256
370
   -1
100
AcDbLine
 10
4.802038763527227
 20
1.180829204146039
 11
0.7872194694306929
 21
7.084975224876236
  0
LINE
  5
56
100
AcDbEntity
  8
noname
  6
ByLayer
 62
  256
370
   -1
100
AcDbLine
 10
0.7872194694306929
 20
7.084975224876236
 11
1.889326726633663
 21
8.187082482079205
  0
LINE
  5
57
100
AcDbEntity
  8
noname
  6
ByLayer
 62
  256
370
   -1
100
AcDbLine
 10
1.889326726633663
 20
8.187082482079205
 11
5.195648498242573
 21
7.714750800420791
  0
LINE
  5
58
100
AcDbEntity
  8
noname
  6
ByLayer
 62
  256
370
   -1
100
AcDbLine
 10
5.195648498242573
 20
7.714750800420791
 11
5.195648498242573
 21
4.565872922698019
  0
LINE
  5
59
100
AcDbEntity
  8
noname
  6
ByLayer
 62
  256
370
   -1
100
AcDbLine
 10
5.195648498242573
 20
4.565872922698019
 11
2.519102302178217
 21
7.557306906534651
  0
LINE
  5
5A
100
AcDbEntity
  8
noname
  6
ByLayer
 62
  256
370
   -1
100
AcDbLine
 10
2.519102302178217
 20
7.557306906534651
 11
6.219033808502473
 21
4.329707081868811
  0
LINE
  5
5B
100
AcDbEntity
  8
noname
  6
ByLayer
 62
  256
370
   -1
100
AcDbLine
 10
6.219033808502473
 20
4.329707081868811
 11
6.297755755445543
 21
2.833990089950494
  0
LINE
  5
5C
100
AcDbEntity
  8
noname
  6
ByLayer
 62
  256
370
   -1
100
AcDbLine
 10
6.297755755445543
 20
2.833990089950494
 11
7.321141065705444
 21
7.478584959591583
  0
LINE
  5
5D
100
AcDbEntity
  8
noname
  6
ByLayer
 62
  256
370
   -1
100
AcDbLine
 10
7.321141065705444
 20
7.478584959591583
 11
7.478584959591583
 21
2.046770620519801
  0
LINE
  5
5E
100
AcDbEntity
  8
noname
  6
ByLayer
 62
  256
370
   -1
100
AcDbLine
 10
7.478584959591583
 20
2.046770620519801
 11
5.746702126844058
 21
2.046770620519801
  0
LINE
  5
5F
100
AcDbEntity
  8
noname
  6
ByLayer
 62
  256
370
   -1
100
AcDbLine
 10
0.3652644049163991
 20
-0.06522578659221412
 11
0.1304515731844282
 21
2.165496114861508
  0
LINE
  5
60
100
AcDbEntity
  8
noname
  6
ByLayer
 62
  256
370
   -1
100
AcDbLine
 10
0.1304515731844282
 20
2.165496114861508
 11
0.4957159781008272
 21
2.087225170950852
  0
LINE
  5
61
100
AcDbEntity
  8
noname
  6
ByLayer
 62
  256
370
   -1
100
AcDbLine
 10
0.4957159781008272
 20
2.087225170950852
 11
0.5739869220114842
 21
0.01304515731844282
  0
LINE
  5
62
100
AcDbEntity
  8
noname
  6
ByLayer
 62
  256
370
   -1
100
AcDbLine
 10
0.9914319562016545
 20
0.1565418878213139
 11
0.6783481805590268
 21
1.630644664805353
  0
LINE
  5
63
100
AcDbEntity
  8
noname
  6
ByLayer
 62
  256
370
   -1
100
AcDbLine
 10
0.6783481805590268
 20
1.630644664805353
 11
0.6913933378774696
 21
2.335083160001265
  0
LINE
  5
64
100
AcDbEntity
  8
noname
  6
ByLayer
 62
  256
370
   -1
100
AcDbLine
 10
0.6913933378774696
 20
2.335083160001265
 11
0.3522192475979562
 21
2.243767058772165
  0
LINE
  5
65
100
AcDbEntity
  8
noname
  6
ByLayer
 62
  256
370
   -1
100
AcDbLine
 10
0.3522192475979562
 20
2.243767058772165
 11
0.887070697654112
 21
1.995909069721752
  0
LINE
  5
66
100
AcDbEntity
  8
noname
  6
ByLayer
 62
  256
370
   -1
100
AcDbLine
 10
0.887070697654112
 20
1.995909069721752
 11
0.3130837756426277
 21
1.61759950748691
  0
LINE
  5
67
100
AcDbEntity
  8
noname
  6
ByLayer
 62
  256
370
   -1
100
AcDbLine
 10
0.3130837756426277
 20
1.61759950748691
 11
1.004477113520097
 21
0.6131223939668127
  0
LINE
  5
68
100
AcDbEntity
  8
noname
  6
ByLayer
 62
  256
370
   -1
100
AcDbLine
 10
1.004477113520097
 20
0.6131223939668127
 11
0.9001158549725548
 21
0.2348128317319708
  0
LINE
  5
69
100
AcDbEntity
  8
noname
  6
ByLayer
 62
  256
370
   -1
100
AcDbLine
 10
0.9001158549725548
 20
0.2348128317319708
 11
0.2609031463688565
 21
0.3652644049163991
  0
LINE
  5
6A
100
AcDbEntity
  8
noname
  6
ByLayer
 62
  256
370
   -1
100
AcDbLine
 10
0.2609031463688565
 20
0.3652644049163991
 11
1.552373720894696
 21
1.917638125811095
  0
LINE
  5
6B
100
AcDbEntity
  8
noname
  6
ByLayer
 62
  256
370
   -1
100
AcDbLine
 10
1.552373720894696
 20
1.917638125811095
 11
-0.4565805061454988
 21
3.300424801566034
  0
LINE
  5
6C
100
AcDbEntity
  8
noname
  6
ByLayer
 62
  256
370
   -1
100
AcDbLine
 10
-0.4565805061454988
 20
3.300424801566034
 11
0.521806292737713
 21
3.052566812515621
  0
LINE
  5
6D
100
AcDbEntity
  8
noname
  6
ByLayer
 62
  256
370
   -1
100
AcDbLine
 10
0.521806292737713
 20
3.052566812515621
 11
0.9131610122909976
 21
2.81775398078365
  0
LINE
  5
6E
100
AcDbEntity
  8
noname
  6
ByLayer
 62
  256
370
   -1
100
AcDbLine
 10
0.9131610122909976
 20
2.81775398078365
 11
1.226244787933625
 21
1.943728440447981
  0
LINE
  5
6F
100
AcDbEntity
  8
noname
  6
ByLayer
 62
  256
370
   -1
100
AcDbLine
 10
1.226244787933625
 20
1.943728440447981
 11
1.578464035531582
 21
1.80023170994511
  0
LINE
  5
70
100
AcDbEntity
  8
noname
  6
ByLayer
 62
  256
370
   -1
100
AcDbLine
 10
1.578464035531582
 20
1.80023170994511
 11
1.448012462347153
 21
0.143496730502871
  0
LINE
  5
71
100
AcDbEntity
  8
noname
  6
ByLayer
 62
  256
370
   -1
100
AcDbLine
 10
1.448012462347153
 20
0.143496730502871
 11
1.891547811174209
 21
0.3391740902795134
  0
LINE
  5
72
100
AcDbEntity
  8
noname
  6
ByLayer
 62
  256
370
   -1
100
AcDbLine
 10
1.891547811174209
 20
0.3391740902795134
 11
2.165496114861508
 21
0.7827094391065693
  0
LINE
  5
73
100
AcDbEntity
  8
noname
  6
ByLayer
 62
  256
370
   -1
100
AcDbLine
 10
2.165496114861508
 20
0.7827094391065693
 11
1.669780136760681
 21
2.478579890504137
  0
LINE
  5
74
100
AcDbEntity
  8
noname
  6
ByLayer
 62
  256
370
   -1
100
AcDbLine
 10
1.669780136760681
 20
2.478579890504137
 11
1.682825294079124
 21
1.552373720894696
  0
LINE
  5
75
100
AcDbEntity
  8
noname
  6
ByLayer
 62
  256
370
   -1
100
AcDbLine
 10
1.682825294079124
 20
1.552373720894696
 11
1.030567428156983
 21
3.000386183241849
  0
LINE
  5
76
100
AcDbEntity
  8
noname
  6
ByLayer
 62
  256
370
   -1
100
AcDbLine
 10
0.01474736843125827
 20
-0.2384157896386753
 11
0.503868421401324
 21
-0.223668421207417
  0
LINE
  5
77
100
AcDbEntity
  8
noname
  6
ByLayer
 62
  256
370
   -1
100
AcDbLine
 10
0.503868421401324
 20
-0.223668421207417
 11
1.10605263234437
 21
-0.2138368422532449
  0
LINE
  5
78
100
AcDbEntity
  8
noname
  6
ByLayer
 62
  256
370
   -1
100
AcDbLine
 10
1.10605263234437
 20
-0.2138368422532449
 11
1.538642106327946
 21
-0.2040052632990727
  0
LINE
  5
79
100
AcDbEntity
  8
noname
  6
ByLayer
 62
  256
370
   -1
100
AcDbLine
 10
1.538642106327946
 20
-0.2040052632990727
 11
1.53372631685086
 21
-0.1622210527438409
  0
LINE
  5
7A
100
AcDbEntity
  8
noname
  6
ByLayer
 62
  256
370
   -1
100
AcDbLine
 10
1.53372631685086
 20
-0.1622210527438409
 11
0.04670000003231784
 21
-0.1794263159136422
  0
LINE
  5
7B
100
AcDbEntity
  8
noname
  6
ByLayer
 62
  256
370
   -1
100
AcDbLine
 10
0.04670000003231784
 20
-0.1794263159136422
 11
0.02949473686251653
 21
-0.1155210527115231
  0
LINE
  5
7C
100
AcDbEntity
  8
noname
  6
ByLayer
 62
  256
370
   -1
100
AcDbLine
 10
0.02949473686251653
 20
-0.1155210527115231
 11
1.531268422112317
 21
-0.1179789474500661
  0
LINE
  5
7D
100
AcDbEntity
  8
noname
  6
ByLayer
 62
  256
370
   -1
100
AcDbLine
 10
1.531268422112317
 20
-0.1179789474500661
 11
1.526352632635231
 21
-0.06636315794066219
  0
LINE
  5
7E
100
AcDbEntity
  8
noname
  6
ByLayer
 62
  256
370
   -1
100
AcDbLine
 10
1.526352632635231
 20
-0.06636315794066219
 11
0.05161578950940393
 21
-0.05407368424794698
  0
LINE
  5
7F
100
AcDbEntity
  8
noname
  6
ByLayer
 62
  256
370
   -1
100
AcDbLine
 10
0.05161578950940393
 20
-0.05407368424794698
 11
0.05653157898649002
 21
0.007373684215629133
  0
LINE
  5
80
100
AcDbEntity
  8
noname
  6
ByLayer
 62
  256
370
   -1
100
AcDbLine
 10
0.05653157898649002
 20
0.007373684215629133
 11
1.526352632635231
 21
0.02457894738543044
  0
LINE
  5
81
100
AcDbEntity
  8
noname
  6
ByLayer
 62
  256
370
   -1
100
AcDbLine
 10
1.526352632635231
 20
0.02457894738543044
 11
1.432952632570595
 21
0.09831578954172178
  0
LINE
  5
82
100
AcDbEntity
  8
noname
  6
ByLayer
 62
  256
370
   -1
100
AcDbLine
 10
1.432952632570595
 20
0.09831578954172178
 11
0.04915789477086089
 21
0.07865263163337742
  0
LINE
  5
83
100
AcDbEntity
  8
noname
  6
ByLayer
 62
  256
370
   -1
100
AcDbLine
 10
0.04915789477086089
 20
0.07865263163337742
 11
0.08111052637192047
 21
0.1499315790511257
  0
LINE
  5
84
100
AcDbEntity
  8
noname
  6
ByLayer
 62
  256
370
   -1
100
AcDbLine
 10
0.08111052637192047
 20
0.1499315790511257
 11
0.1892578948678144
 21
0.1401000000969535
  0
LINE
  5
85
100
AcDbEntity
  8
noname
  6
ByLayer
 62
  256
370
   -1
100
AcDbLine
 10
0.1892578948678144
 20
0.1401000000969535
 11
0.2162947369917879
 21
-0.2162947369917879
  0
LINE
  5
86
100
AcDbEntity
  8
noname
  6
ByLayer
 62
  256
370
   -1
100
AcDbLine
 10
0.2162947369917879
 20
-0.2162947369917879
 11
0.5161578950940393
 21
-0.2162947369917879
  0
LINE
  5
87
100
AcDbEntity
  8
noname
  6
ByLayer
 62
  256
370
   -1
100
AcDbLine
 10
0.5161578950940393
 20
-0.2162947369917879
 11
0.5333631582638406
 21
0.1376421053584105
  0
LINE
  5
88
100
AcDbEntity
  8
noname
  6
ByLayer
 62
  256
370
   -1
100
AcDbLine
 10
0.5333631582638406
 20
0.1376421053584105
 11
0.388347368689801
 21
-0.2138368422532449
  0
LINE
  5
89
100
AcDbEntity
  8
noname
  6
ByLayer
 62
  256
370
   -1
100
AcDbLine
 10
1.563221053713376
 20
-0.1868000001292714
 11
2.030221054036555
 21
-0.2064631580376157
  0
LINE
  5
8A
100
AcDbEntity
  8
noname
  6
ByLayer
 62
  256
370
   -1
100
AcDbLine
 10
2.030221054036555
 20
-0.2064631580376157
 11
2.057257896160528
 21
-0.110605263234437
  0
LINE
  5
8B
100
AcDbEntity
  8
noname
  6
ByLayer
 62
  256
370
   -1
100
AcDbLine
 10
2.057257896160528
 20
-0.110605263234437
 11
1.624668422176952
 21
-0.1376421053584105
  0
LINE
  5
8C
100
AcDbEntity
  8
noname
  6
ByLayer
 62
  256
370
   -1
100
AcDbLine
 10
1.624668422176952
 20
-0.1376421053584105
 11
1.602547369530065
 21
-0.1622210527438409
  0
LINE
  5
8D
100
AcDbEntity
  8
noname
  6
ByLayer
 62
  256
370
   -1
100
AcDbLine
 10
1.602547369530065
 20
-0.1622210527438409
 11
1.550931580020661
 21
-0.1573052632667548
  0
LINE
  5
8E
100
AcDbEntity
  8
noname
  6
ByLayer
 62
  256
370
   -1
100
AcDbLine
 10
1.550931580020661
 20
-0.1573052632667548
 11
1.546015790543575
 21
-0.108147368495894
  0
LINE
  5
8F
100
AcDbEntity
  8
noname
  6
ByLayer
 62
  256
370
   -1
100
AcDbLine
 10
1.546015790543575
 20
-0.108147368495894
 11
1.762310527535363
 21
-0.06390526320211916
  0
LINE
  5
90
100
AcDbEntity
  8
noname
  6
ByLayer
 62
  256
370
   -1
100
AcDbLine
 10
1.762310527535363
 20
-0.06390526320211916
 11
2.032678948775098
 21
-0.06636315794066219
  0
LINE
  5
91
100
AcDbEntity
  8
noname
  6
ByLayer
 62
  256
370
   -1
100
AcDbLine
 10
2.032678948775098
 20
-0.06636315794066219
 11
1.890121053939601
 21
-0.0884842105875496
  0
LINE
  5
92
100
AcDbEntity
  8
noname
  6
ByLayer
 62
  256
370
   -1
100
AcDbLine
 10
1.890121053939601
 20
-0.0884842105875496
 11
1.577968422144634
 21
-0.06882105267920524
  0
LINE
  5
93
100
AcDbEntity
  8
noname
  6
ByLayer
 62
  256
370
   -1
100
AcDbLine
 10
1.577968422144634
 20
-0.06882105267920524
 11
1.548473685282118
 21
-0.007373684215629133
  0
LINE
  5
94
100
AcDbEntity
  8
noname
  6
ByLayer
 62
  256
370
   -1
100
AcDbLine
 10
1.548473685282118
 20
-0.007373684215629133
 11
1.526352632635231
 21
0.06636315794066219
  0
LINE
  5
95
100
AcDbEntity
  8
noname
  6
ByLayer
 62
  256
370
   -1
100
AcDbLine
 10
1.526352632635231
 20
0.06636315794066219
 11
1.36413157989139
 21
-0.007373684215629133
  0
LINE
  5
96
100
AcDbEntity
  8
noname
  6
ByLayer
 62
  256
370
   -1
100
AcDbLine
 10
1.36413157989139
 20
-0.007373684215629133
 11
0.943831579600529
 21
-0.01228947369271522
  0
LINE
  5
97
100
AcDbEntity
  8
noname
  6
ByLayer
 62
  256
370
   -1
100
AcDbLine
 10
0.943831579600529
 20
-0.01228947369271522
 11
0.6464263162368207
 21
0.004915789477086089
  0
LINE
  5
98
100
AcDbEntity
  8
noname
  6
ByLayer
 62
  256
370
   -1
100
AcDbLine
 10
0.6464263162368207
 20
0.004915789477086089
 11
1.268273685088211
 21
0.1523894737896687
  0
LINE
  5
99
100
AcDbEntity
  8
noname
  6
ByLayer
 62
  256
370
   -1
100
AcDbLine
 10
1.268273685088211
 20
0.1523894737896687
 11
2.027763159298011
 21
0.1892578948678144
  0
LINE
  5
9A
100
AcDbEntity
  8
noname
  6
ByLayer
 62
  256
370
   -1
100
AcDbLine
 10
2.027763159298011
 20
0.1892578948678144
 11
1.764768422273906
 21
0.05653157898649002
  0
LINE
  5
9B
100
AcDbEntity
  8
noname
  6
ByLayer
 62
  256
370
   -1
100
AcDbLine
 10
1.764768422273906
 20
0.05653157898649002
 11
1.550931580020661
 21
0.1007736842802648
  0
LINE
  5
9C
100
AcDbEntity
  8
noname
  6
ByLayer
 62
  256
370
   -1
100
AcDbLine
 10
1.550931580020661
 20
0.1007736842802648
 11
1.772142106489535
 21
-0.02703684212397349
  0
LINE
  5
9D
100
AcDbEntity
  8
noname
  6
ByLayer
 62
  256
370
   -1
100
AcDbLine
 10
1.772142106489535
 20
-0.02703684212397349
 11
1.622210527438409
 21
-0.03441052633960262
  0
LINE
  5
9E
100
AcDbEntity
  8
noname
  6
ByLayer
 62
  256
370
   -1
100
AcDbLine
 10
1.622210527438409
 20
-0.03441052633960262
 11
1.499315790511257
 21
-0.07619473689483437
  0
LINE
  5
9F
100
AcDbEntity
  8
noname
  6
ByLayer
 62
  256
370
   -1
100
AcDbLine
 10
1.499315790511257
 20
-0.07619473689483437
 11
1.44524210626331
 21
0.1351842106198674
  0
LINE
  5
A0
100
AcDbEntity
  8
noname
  6
ByLayer
 62
  256
370
   -1
100
AcDbLine
 10
1.44524210626331
 20
0.1351842106198674
 11
1.199452632409006
 21
0.2531631580699336
  0
LINE
  5
A1
100
AcDbEntity
  8
noname
  6
ByLayer
 62
  256
370
   -1
100
AcDbLine
 10
1.199452632409006
 20
0.2531631580699336
 11
0.8774684216598668
 21
0.1302684211427813
  0
LINE
  5
A2
100
AcDbEntity
  8
noname
  6
ByLayer
 62
  256
370
   -1
100
AcDbLine
 10
0.8774684216598668
 20
0.1302684211427813
 11
0.3858894739512579
 21
0.1990894738219866
  0
LINE
  5
A3
100
AcDbEntity
  8
noname
  6
ByLayer
 62
  256
370
   -1
100
AcDbLine
 10
0.3858894739512579
 20
0.1990894738219866
 11
1.828673685476025
 21
0.1622210527438409
  0
LINE
  5
A4
100
AcDbEntity
  8
noname
  6
ByLayer
 62
  256
370
   -1
100
AcDbLine
 10
1.828673685476025
 20
0.1622210527438409
 11
1.781973685443707
 21
0.02949473686251653
  0
LINE
  5
A5
100
AcDbEntity
  8
noname
  6
ByLayer
 62
  256
370
   -1
100
AcDbLine
 10
1.781973685443707
 20
0.02949473686251653
 11
1.833589474953111
 21
-0.04178421055523175
  0
LINE
  5
A6
100
AcDbEntity
  8
noname
  6
ByLayer
 62
  256
370
   -1
100
AcDbLine
 10
1.833589474953111
 20
-0.04178421055523175
 11
2.079378948807415
 21
-0.04670000003231784
  0
LINE
  5
A7
100
AcDbEntity
  8
noname
  6
ByLayer
 62
  256
370
   -1
100
AcDbLine
 10
2.079378948807415
 20
-0.04670000003231784
 11
2.135910527793905
 21
0.1892578948678144
  0
LINE
  5
A8
100
AcDbEntity
  8
noname
  6
ByLayer
 62
  256
370
   -1
100
AcDbLine
 10
2.135910527793905
 20
0.1892578948678144
 11
2.332542106877349
 21
0.167136842220927
  0
LINE
  5
A9
100
AcDbEntity
  8
noname
  6
ByLayer
 62
  256
370
   -1
100
AcDbLine
 10
2.332542106877349
 20
0.167136842220927
 11
2.332542106877349
 21
-0.06882105267920524
  0
LINE
  5
AA
100
AcDbEntity
  8
noname
  6
ByLayer
 62
  256
370
   -1
100
AcDbLine
 10
2.332542106877349
 20
-0.06882105267920524
 11
2.288300001583574
 21
-0.2015473685605296
  0
LINE
  5
AB
100
AcDbEntity
  8
noname
  6
ByLayer
 62
  256
370
   -1
100
AcDbLine
 10
2.288300001583574
 20
-0.2015473685605296
 11
2.148200001486621
 21
-0.1548473685282118
  0
LINE
  5
AC
100
AcDbEntity
  8
noname
  6
ByLayer
 62
  256
370
   -1
100
AcDbLine
 10
2.148200001486621
 20
-0.1548473685282118
 11
2.224394738381455
 21
-0.01228947369271522
  0
LINE
  5
AD
100
AcDbEntity
  8
noname
  6
ByLayer
 62
  256
370
   -1
100
AcDbLine
 10
2.224394738381455
 20
-0.01228947369271522
 11
2.103957896192846
 21
0.1794263159136422
  0
LINE
  5
AE
100
AcDbEntity
  8
noname
  6
ByLayer
 62
  256
370
   -1
100
AcDbLine
 10
2.103957896192846
 20
0.1794263159136422
 11
1.976147369788608
 21
0.009831578954172178
  0
LINE
  5
AF
100
AcDbEntity
  8
noname
  6
ByLayer
 62
  256
370
   -1
100
AcDbLine
 10
1.976147369788608
 20
0.009831578954172178
 11
1.459989474694568
 21
-0.01966315790834436
  0
LINE
  5
B0
100
AcDbEntity
  8
noname
  6
ByLayer
 62
  256
370
   -1
100
AcDbLine
 10
1.459989474694568
 20
-0.01966315790834436
 11
0.6759210530993373
 21
0.0221210526468874
  0
LINE
  5
B1
100
AcDbEntity
  8
noname
  6
ByLayer
 62
  256
370
   -1
100
AcDbLine
 10
0.6759210530993373
 20
0.0221210526468874
 11
0.7005000004847677
 21
0.09585789480317873
  0
LINE
  5
B2
100
AcDbEntity
  8
noname
  6
ByLayer
 62
  256
370
   -1
100
AcDbLine
 10
0.7005000004847677
 20
0.09585789480317873
 11
0.8037315795035755
 21
-0.1695947369594701
  0
LINE
  5
B3
100
AcDbEntity
  8
noname
  6
ByLayer
 62
  256
370
   -1
100
AcDbLine
 10
0.04071056043437906
 20
-0.2412699390449229
 11
0.04011187572210878
 21
0.02993423561351401
  0
LINE
  5
B4
100
AcDbEntity
  8
noname
  6
ByLayer
 62
  256
370
   -1
100
AcDbLine
 10
0.04011187572210878
 20
0.02993423561351401
 11
0.108960617633191
 21
0.02574344262762205
  0
LINE
  5
B5
100
AcDbEntity
  8
noname
  6
ByLayer
 62
  256
370
   -1
100
AcDbLine
 10
0.108960617633191
 20
0.02574344262762205
 11
0.0670526877742714
 21
-0.2412699390449229
  0
LINE
  5
B6
100
AcDbEntity
  8
noname
  6
ByLayer
 62
  256
370
   -1
100
AcDbLine
 10
0.0670526877742714
 20
-0.2412699390449229
 11
0.02514475791535177
 21
-0.2364804613467607
  0
LINE
  5
B7
100
AcDbEntity
  8
noname
  6
ByLayer
 62
  256
370
   -1
100
AcDbLine
 10
0.02514475791535177
 20
-0.2364804613467607
 11
0.02634212733989233
 21
-0.01736185665583813
  0
LINE
  5
B8
100
AcDbEntity
  8
noname
  6
ByLayer
 62
  256
370
   -1
100
AcDbLine
 10
0.02634212733989233
 20
-0.01736185665583813
 11
0.03173028975032485
 21
0.01736185665583813
  0
LINE
  5
B9
100
AcDbEntity
  8
noname
  6
ByLayer
 62
  256
370
   -1
100
AcDbLine
 10
0.03173028975032485
 20
0.01736185665583813
 11
0.01948226416358873
 21
-0.03264595616601354
  0
LINE
  5
BA
100
AcDbEntity
  8
noname
  6
ByLayer
 62
  256
370
   -1
100
AcDbLine
 10
0.01948226416358873
 20
-0.03264595616601354
 11
0.02422119328446166
 21
-0.2158845488397669
  0
LINE
  5
BB
100
AcDbEntity
  8
noname
  6
ByLayer
 62
  256
370
   -1
100
AcDbLine
 10
0.02422119328446166
 20
-0.2158845488397669
 11
0.01158404896213384
 21
-0.1347962061048301
  0
LINE
  5
BC
100
AcDbEntity
  8
noname
  6
ByLayer
 62
  256
370
   -1
100
AcDbLine
 10
0.01158404896213384
 20
-0.1347962061048301
 11
0.02369464560436466
 21
-0.1990350230766632
  0
LINE
  5
BD
100
AcDbEntity
  8
noname
  6
ByLayer
 62
  256
370
   -1
100
AcDbLine
 10
0.02369464560436466
 20
-0.1990350230766632
 11
0.03053976544562557
 21
-0.2327340746028707
  0
LINE
  5
BE
100
AcDbEntity
  8
noname
  6
ByLayer
 62
  256
370
   -1
100
AcDbLine
 10
0.03053976544562557
 20
-0.2327340746028707
 11
0.08108834273493686
 21
-0.2232562163611248
  0
LINE
  5
BF
100
AcDbEntity
  8
noname
  6
ByLayer
 62
  256
370
   -1
100
AcDbLine
 10
0.08108834273493686
 20
-0.2232562163611248
 11
0.04844238656892332
 21
-0.1948226416358872
  0
LINE
  5
C0
100
AcDbEntity
  8
noname
  6
ByLayer
 62
  256
370
   -1
100
AcDbLine
 10
0.04844238656892332
 20
-0.1948226416358872
 11
0.0637122692917361
 21
-0.2285216931620948
  0
LINE
  5
C1
100
AcDbEntity
  8
noname
  6
ByLayer
 62
  256
370
   -1
100
AcDbLine
 10
0.0637122692917361
 20
-0.2285216931620948
 11
0.1032033452990105
 21
-0.1869244264344324
  0
LINE
  5
C2
100
AcDbEntity
  8
noname
  6
ByLayer
 62
  256
370
   -1
100
AcDbLine
 10
0.1032033452990105
 20
-0.1869244264344324
 11
0.139535135225703
 21
-0.2179907395601549
  0
LINE
  5
C3
100
AcDbEntity
  8
noname
  6
ByLayer
 62
  256
370
   -1
100
AcDbLine
 10
0.139535135225703
 20
-0.2179907395601549
 11
0.138482039865509
 21
-0.0989909638582346
  0
LINE
  5
C4
100
AcDbEntity
  8
noname
  6
ByLayer
 62
  256
370
   -1
100
AcDbLine
 10
0.138482039865509
 20
-0.0989909638582346
 11
0.09635822545774964
 21
-0.03369905152620752
  0
LINE
  5
C5
100
AcDbEntity
  8
noname
  6
ByLayer
 62
  256
370
   -1
100
AcDbLine
 10
0.09635822545774964
 20
-0.03369905152620752
 11
0.06002643553105715
 21
-0.07161048449319099
  0
LINE
  5
C6
100
AcDbEntity
  8
noname
  6
ByLayer
 62
  256
370
   -1
100
AcDbLine
 10
0.06002643553105715
 20
-0.07161048449319099
 11
0.05476095873008723
 21
-0.1116281081805624
  0
LINE
  5
C7
100
AcDbEntity
  8
noname
  6
ByLayer
 62
  256
370
   -1
100
AcDbLine
 10
0.05476095873008723
 20
-0.1116281081805624
 11
0.09267239169707069
 21
-0.1295307293038602
  0
LINE
  5
C8
100
AcDbEntity
  8
noname
  6
ByLayer
 62
  256
370
   -1
100
AcDbLine
 10
0.09267239169707069
 20
-0.1295307293038602
 11
0.1442740643465759
 21
-0.09583167777765264
  0
LINE
  5
C9
100
AcDbEntity
  8
noname
  6
ByLayer
 62
  256
370
   -1
100
AcDbLine
 10
0.1442740643465759
 20
-0.09583167777765264
 11
0.2327340746028707
 21
-0.1205794187422113
  0
LINE
  5
CA
100
AcDbEntity
  8
noname
  6
ByLayer
 62
  256
370
   -1
100
AcDbLine
 10
0.2327340746028707
 20
-0.1205794187422113
 11
0.1821854973135594
 21
-0.1663890669106496
  0
LINE
  5
CB
100
AcDbEntity
  8
noname
  6
ByLayer
 62
  256
370
   -1
100
AcDbLine
 10
0.1821854973135594
 20
-0.1663890669106496
 11
0.06897774609270602
 21
-0.1053095360193985
  0
LINE
  5
CC
100
AcDbEntity
  8
noname
  6
ByLayer
 62
  256
370
   -1
100
AcDbLine
 10
0.06897774609270602
 20
-0.1053095360193985
 11
0.06897774609270602
 21
-0.1842916880339474
  0
LINE
  5
CD
100
AcDbEntity
  8
noname
  6
ByLayer
 62
  256
370
   -1
100
AcDbLine
 10
0.06897774609270602
 20
-0.1842916880339474
 11
0.04001762368737143
 21
-0.1511191841878368
  0
LINE
  5
CE
100
AcDbEntity
  8
noname
  6
ByLayer
 62
  256
370
   -1
100
AcDbLine
 10
0.04001762368737143
 20
-0.1511191841878368
 11
0.1005706068985256
 21
-0.1569112086689038
  0
LINE
  5
CF
100
AcDbEntity
  8
noname
  6
ByLayer
 62
  256
370
   -1
100
AcDbLine
 10
0.1005706068985256
 20
-0.1569112086689038
 11
0.05686714945047519
 21
-0.1932429985955963
  0
LINE
  5
D0
100
AcDbEntity
  8
noname
  6
ByLayer
 62
  256
370
   -1
100
AcDbLine
 10
0.05686714945047519
 20
-0.1932429985955963
 11
0.0358052422465955
 21
-0.1827120449936564
  0
LINE
  5
D1
100
AcDbEntity
  8
noname
  6
ByLayer
 62
  256
370
   -1
100
AcDbLine
 10
0.0358052422465955
 20
-0.1827120449936564
 11
0.02369464560436466
 21
-0.2222031210009308
  0
LINE
  5
D2
100
AcDbEntity
  8
noname
  6
ByLayer
 62
  256
370
   -1
100
AcDbLine
 10
0.02369464560436466
 20
-0.2222031210009308
 11
0.009477858241745865
 21
-0.2148314534795729
  0
LINE
  5
D3
100
AcDbEntity
  8
noname
  6
ByLayer
 62
  256
370
   -1
100
AcDbLine
 10
0.009477858241745865
 20
-0.2148314534795729
 11
0.01211059664223083
 21
-0.2395791944441316
  0
LINE
  5
D4
100
AcDbEntity
  8
noname
  6
ByLayer
 62
  256
370
   -1
100
AcDbLine
 10
0.01211059664223083
 20
-0.2395791944441316
 11
0.03053976544562557
 21
-0.2374730037237436
  0
LINE
  5
D5
100
AcDbEntity
  8
noname
  6
ByLayer
 62
  256
370
   -1
100
AcDbLine
 10
0.03053976544562557
 20
-0.2374730037237436
 11
0.01158404896213384
 21
-0.2279951454819978
  0
LINE
  5
D6
100
AcDbEntity
  8
noname
  6
ByLayer
 62
  256
370
   -1
100
AcDbLine
 10
0.01158404896213384
 20
-0.2279951454819978
 11
0.01842916880339474
 21
-0.1974553800363722
  0
LINE
  5
D7
100
AcDbEntity
  8
noname
  6
ByLayer
 62
  256
370
   -1
100
AcDbLine
 10
0.01842916880339474
 20
-0.1974553800363722
 11
0.01684952576310376
 21
-0.1679687099509406
  0
LINE
  5
D8
100
AcDbEntity
  8
noname
  6
ByLayer
 62
  256
370
   -1
100
AcDbLine
 10
0.01684952576310376
 20
-0.1679687099509406
 11
0.02211500256407369
 21
-0.1932429985955963
  0
LINE
  5
D9
100
AcDbEntity
  8
noname
  6
ByLayer
 62
  256
370
   -1
100
AcDbLine
 10
0.02211500256407369
 20
-0.1932429985955963
 11
0.01263714432232782
 21
-0.1879775217946263
  0
LINE
  5
DA
100
AcDbEntity
  8
noname
  6
ByLayer
 62
  256
370
   -1
100
AcDbLine
 10
0.01263714432232782
 20
-0.1879775217946263
 11
0.05581405409028121
 21
-0.2332606222829677
  0
LINE
  5
DB
100
AcDbEntity
  8
noname
  6
ByLayer
 62
  256
370
   -1
100
AcDbLine
 10
0.05581405409028121
 20
-0.2332606222829677
 11
0.06687155537231805
 21
-0.2369464560436466
  0
LINE
  5
DC
100
AcDbEntity
  8
noname
  6
ByLayer
 62
  256
370
   -1
100
AcDbLine
 10
0.06687155537231805
 20
-0.2369464560436466
 11
0.04844238656892332
 21
-0.2064066905980211
  0
LINE
  5
DD
100
AcDbEntity
  8
noname
  6
ByLayer
 62
  256
370
   -1
100
AcDbLine
 10
0.04844238656892332
 20
-0.2064066905980211
 11
0.09635822545774964
 21
-0.2143049057994759
  0
LINE
  5
DE
100
AcDbEntity
  8
noname
  6
ByLayer
 62
  256
370
   -1
100
AcDbLine
 10
0.09635822545774964
 20
-0.2143049057994759
 11
0.1089953697800775
 21
-0.2448446712451015
  0
LINE
  5
DF
100
AcDbEntity
  8
noname
  6
ByLayer
 62
  256
370
   -1
100
AcDbLine
 10
0.1089953697800775
 20
-0.2448446712451015
 11
0.08266798577522783
 21
-0.2290482408421917
  0
LINE
  5
E0
100
AcDbEntity
  8
noname
  6
ByLayer
 62
  256
370
   -1
100
AcDbLine
 10
0.08266798577522783
 20
-0.2290482408421917
 11
0.08108834273493686
 21
-0.2432650282048106
  0
LINE
  5
E1
100
AcDbEntity
  8
noname
  6
ByLayer
 62
  256
370
   -1
100
AcDbLine
 10
0.08108834273493686
 20
-0.2432650282048106
 11
0.1311103723441511
 21
-0.2274685978019008
  0
LINE
  5
E2
100
AcDbEntity
  8
noname
  6
ByLayer
 62
  256
370
   -1
100
AcDbLine
 10
0.1311103723441511
 20
-0.2274685978019008
 11
0.141641325946091
 21
-0.2169376441999609
  0
LINE
  5
E3
100
AcDbEntity
  8
noname
  6
ByLayer
 62
  256
370
   -1
100
AcDbLine
 10
0.141641325946091
 20
-0.2169376441999609
 11
0.1084688220999805
 21
-0.1953491893159842
  0
LINE
  5
E4
100
AcDbEntity
  8
noname
  6
ByLayer
 62
  256
370
   -1
100
AcDbLine
 10
0.1084688220999805
 20
-0.1953491893159842
 11
0.1142608465810474
 21
-0.2269420501218038
  0
LINE
  5
E5
100
AcDbEntity
  8
noname
  6
ByLayer
 62
  256
370
   -1
100
AcDbLine
 10
0.1142608465810474
 20
-0.2269420501218038
 11
0.09951751153833159
 21
-0.211672167398991
  0
LINE
  5
E6
100
AcDbEntity
  8
noname
  6
ByLayer
 62
  256
370
   -1
100
AcDbLine
 10
0.09951751153833159
 20
-0.211672167398991
 11
0.1495395411475459
 21
-0.2348402653232587
  0
LINE
  5
E7
100
AcDbEntity
  8
noname
  6
ByLayer
 62
  256
370
   -1
100
AcDbLine
 10
0.1495395411475459
 20
-0.2348402653232587
 11
0.1516457318679338
 21
-0.2385260990839376
  0
LINE
  5
E8
100
AcDbEntity
  8
noname
  6
ByLayer
 62
  256
370
   -1
100
AcDbLine
 10
0.1516457318679338
 20
-0.2385260990839376
 11
0.1732341867519105
 21
-0.2100925243587
  0
LINE
  5
E9
100
AcDbEntity
  8
noname
  6
ByLayer
 62
  256
370
   -1
100
AcDbLine
 10
0.1732341867519105
 20
-0.2100925243587
 11
0.2469508619654895
 21
-0.2469508619654895
  0
LINE
  5
EA
100
AcDbEntity
  8
noname
  6
ByLayer
 62
  256
370
   -1
100
AcDbLine
 10
0.2469508619654895
 20
-0.2469508619654895
 11
0.2643269354086902
 21
-0.2200969302805429
  0
LINE
  5
EB
100
AcDbEntity
  8
noname
  6
ByLayer
 62
  256
370
   -1
100
AcDbLine
 10
0.2643269354086902
 20
-0.2200969302805429
 11
0.28538884261257
 21
-0.2385260990839376
  0
LINE
  5
EC
100
AcDbEntity
  8
noname
  6
ByLayer
 62
  256
370
   -1
100
AcDbLine
 10
0.28538884261257
 20
-0.2385260990839376
 11
0.2964463438946068
 21
-0.2237827640412218
  0
LINE
  5
ED
100
AcDbEntity
  8
noname
  6
ByLayer
 62
  256
370
   -1
100
AcDbLine
 10
0.2964463438946068
 20
-0.2237827640412218
 11
0.2959197962145098
 21
-0.1990350230766632
  0
LINE
  5
EE
100
AcDbEntity
  8
noname
  6
ByLayer
 62
  256
370
   -1
100
AcDbLine
 10
0.2959197962145098
 20
-0.1990350230766632
 11
0.3375170629421722
 21
-0.211672167398991
  0
LINE
  5
EF
100
AcDbEntity
  8
noname
  6
ByLayer
 62
  256
370
   -1
100
AcDbLine
 10
0.3375170629421722
 20
-0.211672167398991
 11
0.3469949211839181
 21
-0.2206234779606399
  0
LINE
  5
F0
100
AcDbEntity
  8
noname
  6
ByLayer
 62
  256
370
   -1
100
AcDbLine
 10
0.3469949211839181
 20
-0.2206234779606399
 11
0.3580524224659549
 21
-0.2301013362023857
  0
LINE
  5
F1
100
AcDbEntity
  8
noname
  6
ByLayer
 62
  256
370
   -1
100
AcDbLine
 10
0.3580524224659549
 20
-0.2301013362023857
 11
0.3727957575086707
 21
-0.1800793065931715
  0
LINE
  5
F2
100
AcDbEntity
  8
noname
  6
ByLayer
 62
  256
370
   -1
100
AcDbLine
 10
0.3727957575086707
 20
-0.1800793065931715
 11
0.2516897910863624
 21
-0.1816589496334624
  0
LINE
  5
F3
100
AcDbEntity
  8
noname
  6
ByLayer
 62
  256
370
   -1
100
AcDbLine
 10
0.2516897910863624
 20
-0.1816589496334624
 11
0.3859594495110955
 21
-0.1832385926737534
  0
LINE
  5
F4
100
AcDbEntity
  8
noname
  6
ByLayer
 62
  256
370
   -1
100
AcDbLine
 10
0.3859594495110955
 20
-0.1832385926737534
 11
0.5323397045780595
 21
-0.1611235901096797
  0
LINE
  5
F5
100
AcDbEntity
  8
noname
  6
ByLayer
 62
  256
370
   -1
100
AcDbLine
 10
0.5323397045780595
 20
-0.1611235901096797
 11
0.5512954210615512
 21
-0.1605970424295827
  0
LINE
  5
F6
100
AcDbEntity
  8
noname
  6
ByLayer
 62
  256
370
   -1
100
AcDbLine
 10
0.5512954210615512
 20
-0.1605970424295827
 11
0.5044326775329189
 21
-0.2043004998776331
  0
LINE
  5
F7
100
AcDbEntity
  8
noname
  6
ByLayer
 62
  256
370
   -1
100
AcDbLine
 10
0.5044326775329189
 20
-0.2043004998776331
 11
1.959789820493024
 21
-0.02173828299181682
  0
LINE
  5
F8
100
AcDbEntity
  8
noname
  6
ByLayer
 62
  256
370
   -1
100
AcDbLine
 10
1.959789820493024
 20
-0.02173828299181682
 11
2.078514289140639
 21
-0.1421349272541869
  0
LINE
  5
F9
100
AcDbEntity
  8
noname
  6
ByLayer
 62
  256
370
   -1
100
AcDbLine
 10
2.078514289140639
 20
-0.1421349272541869
 11
2.118646503894762
 21
-0.03009916106559252
  0
LINE
  5
FA
100
AcDbEntity
  8
noname
  6
ByLayer
 62
  256
370
   -1
100
AcDbLine
 10
2.118646503894762
 20
-0.03009916106559252
 11
2.120318679509518
 21
-0.2909585569673944
  0
LINE
  5
FB
100
AcDbEntity
  8
noname
  6
ByLayer
 62
  256
370
   -1
100
AcDbLine
 10
2.120318679509518
 20
-0.2909585569673944
 11
2.116974328280007
 21
-0.2073497762296374
  0
LINE
  5
FC
100
AcDbEntity
  8
noname
  6
ByLayer
 62
  256
370
   -1
100
AcDbLine
 10
2.116974328280007
 20
-0.2073497762296374
 11
2.045070776845536
 21
-0.1839393176230654
  0
LINE
  5
FD
100
AcDbEntity
  8
noname
  6
ByLayer
 62
  256
370
   -1
100
AcDbLine
 10
2.045070776845536
 20
-0.1839393176230654
 11
1.951428942419248
 21
-0.06354267336069533
  0
LINE
  5
FE
100
AcDbEntity
  8
noname
  6
ByLayer
 62
  256
370
   -1
100
AcDbLine
 10
1.951428942419248
 20
-0.06354267336069533
 11
1.963134171722534
 21
0.08193660512300187
  0
LINE
  5
FF
100
AcDbEntity
  8
noname
  6
ByLayer
 62
  256
370
   -1
100
AcDbLine
 10
1.963134171722534
 20
0.08193660512300187
 11
1.902935849591349
 21
0.1053470637295738
  0
LINE
  5
100
100
AcDbEntity
  8
noname
  6
ByLayer
 62
  256
370
   -1
100
AcDbLine
 10
1.902935849591349
 20
0.1053470637295738
 11
2.113629977050497
 21
0.2341045860657196
  0
LINE
  5
101
100
AcDbEntity
  8
noname
  6
ByLayer
 62
  256
370
   -1
100
AcDbLine
 10
2.113629977050497
 20
0.2341045860657196
 11
2.27081448483748
 21
0.2909585569673944
  0
LINE
  5
102
100
AcDbEntity
  8
noname
  6
ByLayer
 62
  256
370
   -1
100
AcDbLine
 10
2.27081448483748
 20
0.2909585569673944
 11
2.282519714140766
 21
0.2943029081969046
  0
LINE
  5
103
100
AcDbEntity
  8
noname
  6
ByLayer
 62
  256
370
   -1
100
AcDbLine
 10
2.282519714140766
 20
0.2943029081969046
 11
1.976511576640576
 21
0.2792533276641084
  0
LINE
  5
104
100
AcDbEntity
  8
noname
  6
ByLayer
 62
  256
370
   -1
100
AcDbLine
 10
1.976511576640576
 20
0.2792533276641084
 11
2.339373685042441
 21
-0.08695313196726728
  0
LINE
  5
105
100
AcDbEntity
  8
noname
  6
ByLayer
 62
  256
370
   -1
100
AcDbLine
 10
2.339373685042441
 20
-0.08695313196726728
 11
2.424654641394953
 21
-0.2708924495903327
  0
LINE
  5
106
100
AcDbEntity
  8
noname
  6
ByLayer
 62
  256
370
   -1
100
AcDbLine
 10
2.424654641394953
 20
-0.2708924495903327
 11
2.234026621312867
 21
-0.143807102868942
  0
LINE
  5
107
100
AcDbEntity
  8
noname
  6
ByLayer
 62
  256
370
   -1
100
AcDbLine
 10
2.234026621312867
 20
-0.143807102868942
 11
1.836048825001144
 21
-0.1371184004099215
  0
LINE
  5
108
100
AcDbEntity
  8
noname
  6
ByLayer
 62
  256
370
   -1
100
AcDbLine
 10
1.836048825001144
 20
-0.1371184004099215
 11
2.185533528484968
 21
0.1203966442623701
  0
LINE
  5
109
100
AcDbEntity
  8
noname
  6
ByLayer
 62
  256
370
   -1
100
AcDbLine
 10
2.185533528484968
 20
0.1203966442623701
 11
2.434687695083484
 21
0.1805949663935551
  0
LINE
  5
10A
100
AcDbEntity
  8
noname
  6
ByLayer
 62
  256
370
   -1
100
AcDbLine
 10
2.434687695083484
 20
0.1805949663935551
 11
2.362784143649013
 21
0.02341045860657196
  0
LINE
  5
10B
100
AcDbEntity
  8
noname
  6
ByLayer
 62
  256
370
   -1
100
AcDbLine
 10
2.362784143649013
 20
0.02341045860657196
 11
1.698930424591222
 21
0.4113552012297644
  0
LINE
  5
10C
100
AcDbEntity
  8
noname
  6
ByLayer
 62
  256
370
   -1
100
AcDbLine
 10
1.698930424591222
 20
0.4113552012297644
 11
1.638732102460037
 21
0.2876142057378841
  0
LINE
  5
10D
100
AcDbEntity
  8
noname
  6
ByLayer
 62
  256
370
   -1
100
AcDbLine
 10
1.638732102460037
 20
0.2876142057378841
 11
1.782539205328979
 21
0.2458098153690056
  0
LINE
  5
10E
100
AcDbEntity
  8
noname
  6
ByLayer
 62
  256
370
   -1
100
AcDbLine
 10
1.782539205328979
 20
0.2458098153690056
 11
1.55177897049277
 21
0.1103635905738392
  0
LINE
  5
10F
100
AcDbEntity
  8
noname
  6
ByLayer
 62
  256
370
   -1
100
AcDbLine
 10
1.55177897049277
 20
0.1103635905738392
 11
1.292591750205723
 21
0.2775811520493532
  0
LINE
  5
110
100
AcDbEntity
  8
noname
  6
ByLayer
 62
  256
370
   -1
100
AcDbLine
 10
1.292591750205723
 20
0.2775811520493532
 11
1.153801174181047
 21
0.1739062639345346
  0
LINE
  5
111
100
AcDbEntity
  8
noname
  6
ByLayer
 62
  256
370
   -1
100
AcDbLine
 10
1.153801174181047
 20
0.1739062639345346
 11
0.9949444907793084
 21
0.1103635905738392
  0
LINE
  5
112
100
AcDbEntity
  8
noname
  6
ByLayer
 62
  256
370
   -1
100
AcDbLine
 10
0.9949444907793084
 20
0.1103635905738392
 11
0.7240520411889756
 21
0.1923001956968411
  0
LINE
  5
113
100
AcDbEntity
  8
noname
  6
ByLayer
 62
  256
370
   -1
100
AcDbLine
 10
0.7240520411889756
 20
0.1923001956968411
 11
0.764184255943099
 21
0.2307602348362093
  0
LINE
  5
114
100
AcDbEntity
  8
noname
  6
ByLayer
 62
  256
370
   -1
100
AcDbLine
 10
0.764184255943099
 20
0.2307602348362093
 11
1.245770832992579
 21
0.3745673377051514
  0
LINE
  5
115
100
AcDbEntity
  8
noname
  6
ByLayer
 62
  256
370
   -1
100
AcDbLine
 10
1.245770832992579
 20
0.3745673377051514
 11
1.523351985041933
 21
0.3494847034838243
  0
LINE
  5
116
100
AcDbEntity
  8
noname
  6
ByLayer
 62
  256
370
   -1
100
AcDbLine
 10
1.523351985041933
 20
0.3494847034838243
 11
1.4313823262304
 21
0.1772506151640448
  0
LINE
  5
117
100
AcDbEntity
  8
noname
  6
ByLayer
 62
  256
370
   -1
100
AcDbLine
 10
1.4313823262304
 20
0.1772506151640448
 11
1.362823126025439
 21
0.2491541665985159
  0
LINE
  5
118
100
AcDbEntity
  8
noname
  6
ByLayer
 62
  256
370
   -1
100
AcDbLine
 10
1.362823126025439
 20
0.2491541665985159
 11
1.949756766804493
 21
0.4029943231559888
  0
LINE
  5
119
100
AcDbEntity
  8
noname
  6
ByLayer
 62
  256
370
   -1
100
AcDbLine
 10
1.949756766804493
 20
0.4029943231559888
 11
1.877853215370022
 21
0.2775811520493532
  0
LINE
  5
11A
100
AcDbEntity
  8
noname
  6
ByLayer
 62
  256
370
   -1
100
AcDbLine
 10
1.877853215370022
 20
0.2775811520493532
 11
1.90628020082086
 21
0.1722340883197794
  0
LINE
  5
11B
100
AcDbEntity
  8
noname
  6
ByLayer
 62
  256
370
   -1
100
AcDbLine
 10
1.90628020082086
 20
0.1722340883197794
 11
2.093563869673436
 21
0.4130273768445196
  0
LINE
  5
11C
100
AcDbEntity
  8
noname
  6
ByLayer
 62
  256
370
   -1
100
AcDbLine
 10
2.093563869673436
 20
0.4130273768445196
 11
2.046742952460292
 21
0.1989888981558617
  0
LINE
  5
11D
100
AcDbEntity
  8
noname
  6
ByLayer
 62
  256
370
   -1
100
AcDbLine
 10
2.046742952460292
 20
0.1989888981558617
 11
1.759128746722407
 21
0.2675480983608224
  0
ENDSEC
  0
SECTION
  2
OBJECTS
  0
DICTIONARY
  5
C
330
0
100
AcDbDictionary
281
    1
  3
ACAD_GROUP
350
D
  3
ACAD_IMAGE_DICT
350
11E
  0
DICTIONARY
  5
D
330
C
100
AcDbDictionary
281
    1
  0
IMAGEDEF_REACTOR
  5
4F
330
50
100
AcDbRasterImageDefReactor
 90
    2
330
50
  0
DICTIONARY
  5
11E
330
C
100
AcDbDictionary
281
    1
  3
map-finer-points
350
4E
  0
IMAGEDEF
  5
4E
102
{ACAD_REACTORS
330
4F
102
}
100
AcDbRasterImageDef
 90
    0
  1
/home/sameer/catkin_ws/src/tuw_multi_robot/tuw_multi_robot_demo/cfg/maps/cave/map-finer-points.pgm
 10
500
 20
500
 11
1
 21
1
280
    1
281
    0
  0
ENDSEC
  0
EOF
